#!OML:ASF F:\VICON\USERDATA\INSTALL\Justin_Nancy\Justin_Nancy.ASF
:FULLY-SPECIFIED
:DEGREES
49
root 1.64402 17.059 -22.0491 0.67741 -8.07042 -5.55324
lowerback 6.79263 1.75433 5.44533
upperback -0.0225713 2.91104 3.85951
thorax -3.76971 1.3744 0.661922
lowerneck -16.1913 -3.01761 -8.88569
upperneck 20.2549 -2.87009 4.35372
head 9.24775 -1.55432 2.60931
rclavicle 1.963e-014 -1.90833e-014
rhumerus -20.1576 -5.16614 -79.1233
rradius 37.4843
rwrist 0.639977
rhand -16.8918 13.0718
rfingers 7.12502
rthumb 9.33976 -16.7013
lclavicle 1.963e-014 -1.90833e-014
lhumerus -37.3407 10.4858 84.792
lradius 25.3028
lwrist -6.40567
lhand -19.8118 20.7637
lfingers 7.12502
lthumb 6.52147 50.6433
rfemur 13.1802 8.73636 32.3412
rtibia 15.8139
rfoot -17.3119 -3.76487
rtoes -5.24372
lfemur -33.7861 -6.50846 -7.8293
ltibia 22.4036
lfoot -8.82049 17.2024
ltoes -3.22884
50
root 1.65373 17.04 -21.8006 0.765759 -8.38836 -5.51112
lowerback 6.84116 1.88739 5.33595
upperback -0.211814 3.09582 3.83968
thorax -3.99418 1.46139 0.679638
lowerneck -15.8786 -3.00969 -8.82512
upperneck 20.279 -2.90022 4.32919
head 9.1993 -1.57026 2.58891
rclavicle -1.16041e-014 1.19271e-014
rhumerus -19.9869 -5.39477 -78.977
rradius 37.873
rwrist 0.161731
rhand -16.3242 12.4455
rfingers 7.12502
rthumb 9.88741 -17.3023
lclavicle -1.16041e-014 1.19271e-014
lhumerus -37.8542 12.1572 83.7558
lradius 25.7298
lwrist -11.7042
lhand -12.1678 29.2806
lfingers 7.12502
lthumb 13.8953 58.7964
rfemur 13.9803 8.96019 32.2033
rtibia 15.813
rfoot -17.1491 -3.4703
rtoes -5.93179
lfemur -33.7729 -7.63659 -7.04737
ltibia 21.1277
lfoot -10.0433 17.4089
ltoes -2.06145
51
root 1.66242 17.0168 -21.548 0.67686 -8.76968 -5.41037
lowerback 6.77617 2.02268 5.17695
upperback -0.132559 3.25109 3.8031
thorax -3.87725 1.5445 0.718582
lowerneck -15.7547 -2.97867 -8.65416
upperneck 20.1126 -2.89021 4.24461
head 9.1138 -1.5605 2.53151
rclavicle 4.21423e-014 3.81667e-014
rhumerus -19.5689 -5.61692 -78.9367
rradius 38.1407
rwrist -0.115221
rhand -16.2918 12.0111
rfingers 7.12502
rthumb 9.91864 -17.7352
lclavicle 4.21423e-014 3.81667e-014
lhumerus -38.193 12.813 83.4541
lradius 25.3679
lwrist -11.0128
lhand -14.003 27.2543
lfingers 7.12502
lthumb 12.1262 56.8829
rfemur 14.818 9.13394 31.9866
rtibia 16.0801
rfoot -16.9285 -2.95654
rtoes -6.33052
lfemur -33.4555 -7.89848 -6.83555
ltibia 20.1657
lfoot -11.2698 16.9627
ltoes -3.68041
52
root 1.67394 16.9899 -21.2809 0.478314 -9.03217 -5.1874
lowerback 6.63837 2.10419 5.09102
upperback 0.0517473 3.32359 3.6467
thorax -3.60091 1.58813 0.606273
lowerneck -16.0563 -3.05909 -8.65591
upperneck 20.1177 -3.02157 4.45243
head 9.18273 -1.59622 2.58532
rclavicle 3.22031e-014 4.05521e-014
rhumerus -19.0638 -6.05809 -79.0422
rradius 38.2215
rwrist 0.127077
rhand -16.8501 11.9943
rfingers 7.12502
rthumb 9.37997 -17.7769
lclavicle 3.22031e-014 4.05521e-014
lhumerus -38.2488 13.3341 83.132
lradius 24.8994
lwrist -10.3483
lhand -10.9112 30.3541
lfingers 7.12502
lthumb 15.106 59.7829
rfemur 15.659 9.21233 31.6067
rtibia 16.6998
rfoot -16.8721 -2.19594
rtoes -6.45886
lfemur -32.9493 -7.0962 -7.43758
ltibia 19.5505
lfoot -11.806 15.898
ltoes -6.57007
53
root 1.68814 16.9679 -21.0183 0.390908 -9.08224 -5.01069
lowerback 6.63951 2.112 5.07639
upperback 0.0756552 3.32606 3.50231
thorax -3.56845 1.58931 0.465165
lowerneck -16.4129 -3.15933 -8.69757
upperneck 20.2792 -3.16105 4.62531
head 9.31762 -1.6436 2.63378
rclavicle 4.34841e-015 3.18055e-015
rhumerus -18.6637 -6.63204 -79.1097
rradius 38.1493
rwrist 0.327353
rhand -17.0324 12.0466
rfingers 7.12502
rthumb 9.20411 -17.7326
lclavicle 4.34841e-015 3.18055e-015
lhumerus -38.3886 14.1224 82.5717
lradius 24.2281
lwrist -10.3936
lhand -13.4227 25.9232
lfingers 7.12502
lthumb 12.6857 55.5179
rfemur 16.1788 9.00355 31.1975
rtibia 17.6191
rfoot -16.6636 -1.3297
rtoes -8.55658
lfemur -32.566 -5.84119 -8.23409
ltibia 19.2242
lfoot -11.8004 14.1807
ltoes -6.54286
54
root 1.6981 16.9523 -20.7658 0.291052 -9.04112 -4.85203
lowerback 6.79856 2.05919 4.89943
upperback 0.00783388 3.25798 3.47511
thorax -3.73825 1.5545 0.533568
lowerneck -16.636 -3.13411 -8.72503
upperneck 20.5697 -3.09962 4.60355
head 9.4559 -1.62075 2.6408
rclavicle 7.87684e-015 1.27222e-014
rhumerus -18.5243 -6.99746 -79.0825
rradius 38.1378
rwrist 0.355721
rhand -16.8706 12.1356
rfingers 7.12502
rthumb 9.36016 -17.6365
lclavicle 7.87684e-015 1.27222e-014
lhumerus -38.7892 14.699 82.2766
lradius 23.702
lwrist -9.77572
lhand -11.9558 27.8105
lfingers 7.12502
lthumb 14.0996 57.3122
rfemur 16.5042 8.80556 30.8649
rtibia 18.7127
rfoot -16.1915 -0.699313
rtoes -10.95
lfemur -32.2098 -4.36743 -9.17279
ltibia 19.2325
lfoot -11.2076 11.8065
ltoes -4.94806
55
root 1.7107 16.9431 -20.5027 0.155073 -8.90684 -4.54705
lowerback 6.82923 2.03252 4.62259
upperback -0.0722438 3.20536 3.39618
thorax -3.8502 1.53042 0.607627
lowerneck -16.6721 -3.16464 -8.75071
upperneck 20.8002 -3.13466 4.59125
head 9.54647 -1.64315 2.63847
rclavicle 4.77083e-015 1.59028e-015
rhumerus -18.5494 -7.41864 -78.9812
rradius 38.0927
rwrist 0.470696
rhand -17.4506 11.9232
rfingers 7.12502
rthumb 8.80052 -17.8733
lclavicle 4.77083e-015 1.59028e-015
lhumerus -39.131 15.1759 82.0143
lradius 23.2969
lwrist -10.01
lhand -11.8816 28.8555
lfingers 7.12502
lthumb 14.1711 58.3522
rfemur 16.7939 8.67912 30.3972
rtibia 19.9249
rfoot -15.5569 -0.0450234
rtoes -10.4556
lfemur -31.8622 -3.07449 -10.3444
ltibia 19.5829
lfoot -10.3522 9.81662
ltoes -5.33462
56
root 1.72481 16.9347 -20.2235 -0.173824 -8.84574 -4.22259
lowerback 6.80213 2.09067 4.42971
upperback -0.0288248 3.25755 3.24537
thorax -3.78994 1.56034 0.555434
lowerneck -16.4628 -3.27693 -8.69912
upperneck 20.6958 -3.33648 4.64839
head 9.4859 -1.72771 2.62302
rclavicle -1.88845e-015 4.85035e-014
rhumerus -18.6446 -8.15352 -78.8885
rradius 38.0796
rwrist 0.672361
rhand -18.5358 11.4506
rfingers 7.12502
rthumb 7.75321 -18.3872
lclavicle -1.88845e-015 4.85035e-014
lhumerus -39.3048 15.5907 81.6575
lradius 22.8223
lwrist -11.0373
lhand -13.0599 27.0274
lfingers 7.12502
lthumb 13.0354 56.6
rfemur 17.2723 8.48304 29.8664
rtibia 21.1898
rfoot -14.6787 0.781083
rtoes -9.50124
lfemur -31.2903 -2.36643 -11.3484
ltibia 20.2748
lfoot -9.60704 8.76817
ltoes -8.31312
57
root 1.74071 16.9258 -19.9361 -0.530009 -8.68966 -3.95072
lowerback 6.67023 2.08825 4.32251
upperback 0.0255972 3.2289 3.10796
thorax -3.65723 1.55 0.481897
lowerneck -16.254 -3.30854 -8.57373
upperneck 20.7163 -3.42987 4.62921
head 9.45827 -1.76622 2.58473
rclavicle -1.82882e-014 3.97569e-015
rhumerus -18.9458 -8.61111 -78.8116
rradius 38.2358
rwrist 0.681732
rhand -19.4385 10.8897
rfingers 7.12502
rthumb 6.88188 -18.9785
lclavicle -1.82882e-014 3.97569e-015
lhumerus -39.4682 15.7395 81.4236
lradius 22.1956
lwrist -11.3183
lhand -12.879 26.7754
lfingers 7.12502
lthumb 13.2098 56.3369
rfemur 17.8286 8.2041 29.3907
rtibia 22.3423
rfoot -13.5041 1.66448
rtoes -10.2407
lfemur -30.8232 -1.95945 -12.1999
ltibia 21.4889
lfoot -9.03293 7.65305
ltoes -9.72683
58
root 1.75746 16.9281 -19.6471 -0.654591 -8.38353 -3.75682
lowerback 6.3433 1.99031 4.28925
upperback 0.0318665 3.07118 3.03179
thorax -3.46758 1.47543 0.448945
lowerneck -16.4074 -3.33903 -8.58304
upperneck 21.1315 -3.44399 4.53458
head 9.63255 -1.78725 2.55439
rclavicle 2.34939e-014 1.11319e-014
rhumerus -19.2265 -8.68143 -78.7395
rradius 38.3587
rwrist 0.412837
rhand -20.3003 10.4277
rfingers 7.12502
rthumb 6.0499 -19.4659
lclavicle 2.34939e-014 1.11319e-014
lhumerus -39.5411 16.1398 81.1763
lradius 21.5083
lwrist -11.71
lhand -12.2832 27.4144
lfingers 7.12502
lthumb 13.7841 56.9378
rfemur 18.0596 7.82564 28.9867
rtibia 23.5444
rfoot -11.9319 2.42947
rtoes -12.0191
lfemur -30.8221 -1.61464 -12.9536
ltibia 23.0463
lfoot -8.03792 6.05278
ltoes -9.06071
59
root 1.77258 16.9572 -19.3601 -0.726563 -8.05951 -3.79064
lowerback 6.11949 1.83252 4.34645
upperback -0.00659882 2.85586 3.13208
thorax -3.3889 1.36956 0.547047
lowerneck -16.4142 -3.31964 -8.92333
upperneck 21.3971 -3.36488 4.67405
head 9.73146 -1.76596 2.67378
rclavicle 2.31708e-014 0
rhumerus -19.6109 -8.53719 -78.5356
rradius 38.3573
rwrist -0.075111
rhand -19.5056 11.0483
rfingers 7.12502
rthumb 6.81707 -18.822
lclavicle 2.31708e-014 0
lhumerus -39.7866 16.8513 80.9446
lradius 21.0057
lwrist -12.4822
lhand -12.1451 27.897
lfingers 7.12502
lthumb 13.9171 57.4113
rfemur 17.9789 7.40673 28.8055
rtibia 25.0736
rfoot -9.88883 3.32238
rtoes -11.2554
lfemur -30.8842 -0.988664 -13.5215
ltibia 24.6286
lfoot -6.57971 4.17133
ltoes -11.0071
60
root 1.78793 16.9893 -19.0788 -0.84526 -7.72909 -3.64075
lowerback 6.17082 1.72472 4.17616
upperback -0.267175 2.72036 3.18741
thorax -3.70174 1.29885 0.704827
lowerneck -15.8488 -3.24706 -9.09695
upperneck 21.4278 -3.2719 4.66917
head 9.63339 -1.74512 2.71762
rclavicle 2.26739e-014 9.54166e-015
rhumerus -20.4275 -8.44614 -78.2205
rradius 38.493
rwrist -0.265672
rhand -17.7739 11.655
rfingers 7.12502
rthumb 8.48854 -18.1544
lclavicle 2.26739e-014 9.54166e-015
lhumerus -40.4638 17.4222 80.5692
lradius 20.5784
lwrist -13.371
lhand -12.2445 27.8063
lfingers 7.12502
lthumb 13.8213 57.3271
rfemur 17.5502 6.98086 28.4193
rtibia 27.0946
rfoot -7.13818 4.25372
rtoes -8.7532
lfemur -30.848 -0.504224 -14.1707
ltibia 26.0842
lfoot -5.58294 2.67192
ltoes -13.7317
61
root 1.80254 16.9936 -18.8049 -1.01383 -7.39887 -3.51671
lowerback 6.37203 1.68863 4.02593
upperback -0.50665 2.68839 3.20162
thorax -4.07229 1.27881 0.79619
lowerneck -15.6185 -3.30946 -9.10516
upperneck 21.6924 -3.36219 4.56848
head 9.68977 -1.80563 2.67609
rclavicle 1.59564e-014 -2.38542e-015
rhumerus -21.2197 -8.74032 -77.9231
rradius 38.4514
rwrist -0.37057
rhand -17.1782 11.7932
rfingers 7.12502
rthumb 9.06336 -17.9921
lclavicle 1.59564e-014 -2.38542e-015
lhumerus -40.886 17.9015 80.0961
lradius 19.9301
lwrist -14.5512
lhand -12.355 26.4615
lfingers 7.12502
lthumb 13.7149 55.9896
rfemur 16.8426 6.72143 28.1751
rtibia 29.5751
rfoot -3.87031 4.79647
rtoes -5.3877
lfemur -30.808 -0.343423 -14.5725
ltibia 27.4225
lfoot -5.43599 1.12217
ltoes -13.2194
62
root 1.80926 16.9987 -18.5328 -1.28317 -7.10581 -2.99733
lowerback 6.56871 1.73504 3.44429
upperback -0.617106 2.71682 3.04225
thorax -4.31589 1.30062 0.944489
lowerneck -15.6366 -3.49393 -9.18943
upperneck 22.0129 -3.64807 4.74109
head 9.83369 -1.93001 2.71638
rclavicle 3.2638e-014 9.54166e-015
rhumerus -21.8822 -9.39491 -77.6815
rradius 38.2598
rwrist -0.469557
rhand -17.5263 11.8521
rfingers 7.12502
rthumb 8.7275 -17.9475
lclavicle 3.2638e-014 9.54166e-015
lhumerus -40.8463 17.9908 79.8355
lradius 19.331
lwrist -15.7375
lhand -12.0866 25.8605
lfingers 7.12502
lthumb 13.9736 55.3709
rfemur 15.8324 6.65606 27.637
rtibia 32.5355
rfoot -0.272597 5.07055
rtoes -4.9598
lfemur -30.4517 -0.19016 -15.3424
ltibia 28.4085
lfoot -5.21415 -0.976918
ltoes -12.8324
